<mxfile host="65bd71144e">
    <diagram id="-3TGqNaoeqni8hcpLPIH" name="Page-1">
        <mxGraphModel dx="1130" dy="827" grid="1" gridSize="10" guides="1" tooltips="1" connect="1" arrows="1" fold="1" page="1" pageScale="1" pageWidth="850" pageHeight="1100" math="0" shadow="0">
            <root>
                <mxCell id="0"/>
                <mxCell id="1" parent="0"/>
                <mxCell id="22" value="" style="edgeStyle=none;html=1;fontFamily=Kanit;fontSource=https%3A%2F%2Ffonts.googleapis.com%2Fcss%3Ffamily%3DKanit;entryX=0.5;entryY=0;entryDx=0;entryDy=0;" parent="1" source="2" target="4" edge="1">
                    <mxGeometry relative="1" as="geometry"/>
                </mxCell>
                <mxCell id="2" value="&lt;font face=&quot;Kanit&quot;&gt;Start&lt;/font&gt;" style="strokeWidth=2;html=1;shape=mxgraph.flowchart.terminator;whiteSpace=wrap;" parent="1" vertex="1">
                    <mxGeometry x="273.75" y="70" width="100" height="60" as="geometry"/>
                </mxCell>
                <mxCell id="3" value="&lt;font face=&quot;Kanit&quot;&gt;End&lt;/font&gt;" style="strokeWidth=2;html=1;shape=mxgraph.flowchart.terminator;whiteSpace=wrap;" parent="1" vertex="1">
                    <mxGeometry x="68.75" y="610" width="100" height="60" as="geometry"/>
                </mxCell>
                <mxCell id="10" value="" style="edgeStyle=none;html=1;fontFamily=Kanit;fontSource=https%3A%2F%2Ffonts.googleapis.com%2Fcss%3Ffamily%3DKanit;" parent="1" source="4" target="5" edge="1">
                    <mxGeometry relative="1" as="geometry"/>
                </mxCell>
                <mxCell id="4" value="&lt;font data-font-src=&quot;https://fonts.googleapis.com/css?family=Kanit&quot; face=&quot;Kanit&quot;&gt;read : n , i = 2&lt;/font&gt;" style="shape=parallelogram;perimeter=parallelogramPerimeter;whiteSpace=wrap;html=1;fixedSize=1;" parent="1" vertex="1">
                    <mxGeometry x="245" y="150" width="157.5" height="60" as="geometry"/>
                </mxCell>
                <mxCell id="11" value="" style="edgeStyle=none;html=1;fontFamily=Kanit;fontSource=https%3A%2F%2Ffonts.googleapis.com%2Fcss%3Ffamily%3DKanit;" parent="1" source="5" target="7" edge="1">
                    <mxGeometry relative="1" as="geometry"/>
                </mxCell>
                <mxCell id="21" value="" style="edgeStyle=none;html=1;fontFamily=Kanit;fontSource=https%3A%2F%2Ffonts.googleapis.com%2Fcss%3Ffamily%3DKanit;" parent="1" source="5" target="9" edge="1">
                    <mxGeometry relative="1" as="geometry"/>
                </mxCell>
                <mxCell id="5" value="&lt;font data-font-src=&quot;https://fonts.googleapis.com/css?family=Kanit&quot; face=&quot;Kanit&quot;&gt;i &amp;lt; n&amp;nbsp;&lt;/font&gt;" style="rhombus;whiteSpace=wrap;html=1;" parent="1" vertex="1">
                    <mxGeometry x="276.25" y="240" width="95" height="80" as="geometry"/>
                </mxCell>
                <mxCell id="12" value="" style="edgeStyle=none;html=1;fontFamily=Kanit;fontSource=https%3A%2F%2Ffonts.googleapis.com%2Fcss%3Ffamily%3DKanit;" parent="1" source="7" target="8" edge="1">
                    <mxGeometry relative="1" as="geometry"/>
                </mxCell>
                <mxCell id="14" value="" style="edgeStyle=none;html=1;fontFamily=Kanit;fontSource=https%3A%2F%2Ffonts.googleapis.com%2Fcss%3Ffamily%3DKanit;" parent="1" source="7" target="13" edge="1">
                    <mxGeometry relative="1" as="geometry"/>
                </mxCell>
                <mxCell id="7" value="&lt;font data-font-src=&quot;https://fonts.googleapis.com/css?family=Kanit&quot; face=&quot;Kanit&quot;&gt;n % i == 0&amp;nbsp;&lt;/font&gt;" style="rhombus;whiteSpace=wrap;html=1;" parent="1" vertex="1">
                    <mxGeometry x="276.25" y="370" width="95" height="80" as="geometry"/>
                </mxCell>
                <mxCell id="8" value="&lt;font face=&quot;Kanit&quot;&gt;write : &quot;Not Prime&quot;&lt;/font&gt;" style="shape=parallelogram;perimeter=parallelogramPerimeter;whiteSpace=wrap;html=1;fixedSize=1;" parent="1" vertex="1">
                    <mxGeometry x="245" y="490" width="157.5" height="60" as="geometry"/>
                </mxCell>
                <mxCell id="9" value="&lt;font face=&quot;Kanit&quot;&gt;write : &quot;Prime&quot;&lt;/font&gt;" style="shape=parallelogram;perimeter=parallelogramPerimeter;whiteSpace=wrap;html=1;fixedSize=1;" parent="1" vertex="1">
                    <mxGeometry x="40" y="250" width="157.5" height="60" as="geometry"/>
                </mxCell>
                <mxCell id="13" value="&lt;font data-font-src=&quot;https://fonts.googleapis.com/css?family=Kanit&quot; face=&quot;Kanit&quot;&gt;i += 1&lt;/font&gt;" style="rounded=0;whiteSpace=wrap;html=1;" parent="1" vertex="1">
                    <mxGeometry x="408.75" y="380" width="155" height="60" as="geometry"/>
                </mxCell>
                <mxCell id="15" value="" style="endArrow=none;html=1;fontFamily=Kanit;fontSource=https%3A%2F%2Ffonts.googleapis.com%2Fcss%3Ffamily%3DKanit;exitX=0.5;exitY=0;exitDx=0;exitDy=0;" parent="1" source="13" edge="1">
                    <mxGeometry width="50" height="50" relative="1" as="geometry">
                        <mxPoint x="328.75" y="330" as="sourcePoint"/>
                        <mxPoint x="488.75" y="280" as="targetPoint"/>
                    </mxGeometry>
                </mxCell>
                <mxCell id="16" value="" style="endArrow=classic;html=1;fontFamily=Kanit;fontSource=https%3A%2F%2Ffonts.googleapis.com%2Fcss%3Ffamily%3DKanit;entryX=1;entryY=0.5;entryDx=0;entryDy=0;" parent="1" target="5" edge="1">
                    <mxGeometry width="50" height="50" relative="1" as="geometry">
                        <mxPoint x="490" y="280" as="sourcePoint"/>
                        <mxPoint x="428.75" y="270" as="targetPoint"/>
                    </mxGeometry>
                </mxCell>
                <mxCell id="17" value="" style="ellipse;whiteSpace=wrap;html=1;aspect=fixed;fontFamily=Kanit;fontSource=https%3A%2F%2Ffonts.googleapis.com%2Fcss%3Ffamily%3DKanit;" parent="1" vertex="1">
                    <mxGeometry x="98.75" y="500" width="40" height="40" as="geometry"/>
                </mxCell>
                <mxCell id="18" value="" style="endArrow=classic;html=1;fontFamily=Kanit;fontSource=https%3A%2F%2Ffonts.googleapis.com%2Fcss%3Ffamily%3DKanit;entryX=0.5;entryY=0;entryDx=0;entryDy=0;exitX=0.5;exitY=1;exitDx=0;exitDy=0;" parent="1" source="9" target="17" edge="1">
                    <mxGeometry width="50" height="50" relative="1" as="geometry">
                        <mxPoint x="320" y="490" as="sourcePoint"/>
                        <mxPoint x="370" y="440" as="targetPoint"/>
                    </mxGeometry>
                </mxCell>
                <mxCell id="19" value="" style="endArrow=classic;html=1;fontFamily=Kanit;fontSource=https%3A%2F%2Ffonts.googleapis.com%2Fcss%3Ffamily%3DKanit;entryX=1;entryY=0.5;entryDx=0;entryDy=0;exitX=0;exitY=0.5;exitDx=0;exitDy=0;" parent="1" source="8" target="17" edge="1">
                    <mxGeometry width="50" height="50" relative="1" as="geometry">
                        <mxPoint x="128.75" y="320" as="sourcePoint"/>
                        <mxPoint x="128.75" y="510" as="targetPoint"/>
                    </mxGeometry>
                </mxCell>
                <mxCell id="20" value="" style="endArrow=classic;html=1;fontFamily=Kanit;fontSource=https%3A%2F%2Ffonts.googleapis.com%2Fcss%3Ffamily%3DKanit;entryX=0.5;entryY=0;entryDx=0;entryDy=0;exitX=0.5;exitY=1;exitDx=0;exitDy=0;entryPerimeter=0;" parent="1" source="17" target="3" edge="1">
                    <mxGeometry width="50" height="50" relative="1" as="geometry">
                        <mxPoint x="138.75" y="330" as="sourcePoint"/>
                        <mxPoint x="138.75" y="520" as="targetPoint"/>
                    </mxGeometry>
                </mxCell>
                <mxCell id="23" value="False" style="text;html=1;align=center;verticalAlign=middle;resizable=0;points=[];autosize=1;strokeColor=none;fillColor=none;fontFamily=Kanit;fontSource=https%3A%2F%2Ffonts.googleapis.com%2Fcss%3Ffamily%3DKanit;" parent="1" vertex="1">
                    <mxGeometry x="350" y="370" width="50" height="30" as="geometry"/>
                </mxCell>
                <mxCell id="25" value="True" style="text;html=1;align=center;verticalAlign=middle;resizable=0;points=[];autosize=1;strokeColor=none;fillColor=none;fontFamily=Kanit;fontSource=https%3A%2F%2Ffonts.googleapis.com%2Fcss%3Ffamily%3DKanit;" parent="1" vertex="1">
                    <mxGeometry x="323.75" y="440" width="50" height="30" as="geometry"/>
                </mxCell>
            </root>
        </mxGraphModel>
    </diagram>
</mxfile>